<?xml version="1.0" encoding="UTF-8" standalone="no"?>
<svg
   version="1.1"
   id="svg2"
   xml:space="preserve"
   width="1506.2933"
   height="306.23999"
   viewBox="0 0 1506.2933 306.23999"
   xmlns:inkscape="http://www.inkscape.org/namespaces/inkscape"
   xmlns:sodipodi="http://sodipodi.sourceforge.net/DTD/sodipodi-0.dtd"
   xmlns="http://www.w3.org/2000/svg"
   xmlns:svg="http://www.w3.org/2000/svg"><defs
     id="defs6" /><sodipodi:namedview
     id="namedview4"
     pagecolor="#ffffff"
     bordercolor="#666666"
     borderopacity="1.0"
     inkscape:pageshadow="2"
     inkscape:pageopacity="0.0"
     inkscape:pagecheckerboard="0" /><g
     id="g8"
     inkscape:groupmode="layer"
     inkscape:label="ink_ext_XXXXXX"
     transform="matrix(1.3333333,0,0,-1.3333333,0,306.24)"><g
       id="g10"
       transform="scale(0.1)"><path
         d="M 2296.75,1148.38 C 2296.75,514.16 1782.59,0 1148.37,0 514.16,0 0,514.16 0,1148.38 c 0,634.22 514.16,1148.39 1148.37,1148.39 634.22,0 1148.38,-514.17 1148.38,-1148.39"
         style="fill:#2f97da;fill-opacity:1;fill-rule:nonzero;stroke:none"
         id="path12" /><path
         d="m 3355.59,1406.22 -219.8,-320.43 h 436.95 z m 565.39,-593.2 c 0,-21.192 -6.62,-37.079 -19.86,-50.321 -14.57,-13.238 -30.46,-19.859 -48.99,-19.859 -27.81,0 -50.32,13.242 -67.53,38.398 L 3657.48,966.609 H 3052.37 L 2923.93,781.238 c -13.25,-19.867 -27.81,-30.457 -43.7,-30.457 -9.26,0 -19.86,2.66 -31.78,7.949 -26.48,11.918 -39.72,27.809 -39.72,47.668 0,3.973 1.32,7.942 3.97,13.243 l 454.17,692.509 c 17.21,26.49 46.35,41.05 88.72,43.7 33.1,1.32 58.26,-7.95 74.15,-29.14 1.32,-2.64 3.97,-7.93 7.94,-14.56 l 480.65,-680.599 c 2.65,-6.621 2.65,-11.91 2.65,-18.531"
         style="fill:#fff;fill-opacity:1;fill-rule:nonzero;stroke:none"
         id="path14" /><path
         d="m 4861.08,758.73 h -451.52 c -78.12,0 -137.71,2.641 -176.1,9.27 -70.17,10.602 -124.47,33.09 -160.22,66.199 -37.07,33.102 -55.61,76.813 -55.61,132.41 v 529.651 c 0,33.1 17.21,50.32 51.64,50.32 34.43,0 55.62,-1.33 62.23,-2.65 19.86,-6.62 30.46,-22.51 30.46,-47.67 V 966.609 c 0,-42.371 33.1,-68.859 100.63,-82.097 26.48,-3.961 75.47,-7.93 145.65,-7.93 h 452.84 c 21.19,0 35.76,-5.301 42.38,-18.551 5.29,-9.261 7.94,-25.16 7.94,-47.66 0,-34.43 -15.89,-51.641 -50.32,-51.641"
         style="fill:#fff;fill-opacity:1;fill-rule:nonzero;stroke:none"
         id="path16" /><path
         d="m 5892.56,1361.2 c 0,45.02 -62.23,67.53 -188.03,67.53 h -505.81 v -271.44 h 507.13 c 124.48,0 186.71,31.78 186.71,96.66 z m 23.84,-283.36 c -56.94,-25.15 -129.77,-38.39 -219.82,-38.39 H 5198.72 V 810.371 c 0,-26.48 -10.6,-42.371 -30.46,-47.672 -6.62,-2.66 -27.81,-3.969 -62.23,-3.969 -34.43,0 -51.64,17.211 -51.64,51.641 v 685.889 c 0,33.1 17.21,50.32 51.64,50.32 h 597.17 c 76.8,0 145.66,-10.59 205.25,-34.43 84.75,-30.45 125.78,-78.12 125.78,-141.67 v -121.83 c 0,-78.12 -38.39,-135.06 -117.83,-170.81"
         style="fill:#fff;fill-opacity:1;fill-rule:nonzero;stroke:none"
         id="path18" /><path
         d="m 7101.4,758.73 c -34.43,0 -54.3,1.309 -62.24,3.969 -18.54,5.301 -29.14,21.192 -29.14,47.672 V 1089.76 H 6314.88 V 810.371 c 0,-34.43 -17.21,-51.641 -50.3,-51.641 -35.75,0 -56.93,1.309 -63.53,3.969 -19.85,5.301 -30.44,21.192 -30.44,47.672 v 685.889 c 0,25.16 10.59,42.38 30.44,47.67 6.6,1.32 27.78,2.65 63.53,2.65 33.09,0 50.3,-17.22 50.3,-50.32 v -288.65 h 695.14 v 288.65 c 0,25.16 10.6,41.05 30.46,46.35 6.62,2.64 26.49,3.97 60.92,3.97 34.42,0 51.62,-17.22 51.62,-50.32 V 810.371 c 0,-34.43 -17.2,-51.641 -51.62,-51.641"
         style="fill:#fff;fill-opacity:1;fill-rule:nonzero;stroke:none"
         id="path20" /><path
         d="m 7509.19,758.73 c -35.74,0 -56.93,1.309 -63.55,3.969 -19.86,5.301 -30.46,21.192 -30.46,47.672 v 685.889 c 0,25.16 10.6,42.38 30.46,47.67 6.62,1.32 27.81,2.65 63.55,2.65 33.11,0 50.33,-17.22 50.33,-50.32 V 810.371 c 0,-34.43 -17.22,-51.641 -50.33,-51.641"
         style="fill:#fff;fill-opacity:1;fill-rule:nonzero;stroke:none"
         id="path22" /><path
         d="m 8718.16,753.441 c -5.3,0 -10.6,1.321 -15.89,1.321 -17.22,2.636 -39.73,14.566 -66.21,37.066 l -670,569.372 V 810.371 c 0,-26.48 -10.59,-42.371 -30.46,-47.672 -6.62,-2.66 -27.79,-3.969 -62.23,-3.969 -34.43,0 -51.64,17.211 -51.64,51.641 v 656.769 c 0,22.5 2.66,37.07 5.3,43.69 3.98,11.92 14.57,22.51 31.78,31.78 10.59,6.62 23.84,9.27 37.07,9.27 31.79,0 63.57,-13.24 95.34,-41.05 l 662.07,-562.74 v 548.17 c 0,25.16 10.57,41.05 30.44,47.67 6.62,1.32 27.8,2.65 62.23,2.65 34.43,0 51.64,-17.22 51.64,-50.32 V 843.469 c 0,-59.578 -26.47,-90.028 -79.44,-90.028"
         style="fill:#fff;fill-opacity:1;fill-rule:nonzero;stroke:none"
         id="path24" /><path
         d="m 9501.95,1406.22 -219.81,-320.43 h 436.97 z m 565.35,-593.2 c 0,-21.192 -6.6,-37.079 -19.8,-50.321 -14.6,-13.238 -30.5,-19.859 -49.01,-19.859 -27.79,0 -50.31,13.242 -67.53,38.398 L 9803.85,966.609 H 9198.73 L 9070.3,781.238 c -13.24,-19.867 -27.82,-30.457 -43.7,-30.457 -9.28,0 -19.87,2.66 -31.77,7.949 -26.5,11.918 -39.74,27.809 -39.74,47.668 0,3.973 1.33,7.942 3.99,13.243 l 454.16,692.509 c 17.21,26.49 46.34,41.05 88.71,43.7 33.11,1.32 58.27,-7.95 74.16,-29.14 1.32,-2.64 3.96,-7.93 7.93,-14.56 l 480.66,-680.599 c 2.6,-6.621 2.6,-11.91 2.6,-18.531"
         style="fill:#fff;fill-opacity:1;fill-rule:nonzero;stroke:none"
         id="path26" /><path
         d="m 10881.7,1428.73 h -317.8 V 810.371 c 0,-34.43 -17.2,-51.641 -50.3,-51.641 -35.8,0 -57,1.309 -63.6,3.969 -19.8,5.301 -29.1,21.192 -29.1,47.672 v 618.359 h -316.5 c -34.4,0 -51.6,17.22 -51.6,51.65 0,22.5 2.6,38.4 7.9,47.66 8,11.92 22.5,18.54 43.7,18.54 h 777.3 c 21.1,0 35.7,-6.62 42.3,-18.54 5.3,-9.26 8,-25.16 8,-47.66 0,-34.43 -15.9,-51.65 -50.3,-51.65"
         style="fill:#fff;fill-opacity:1;fill-rule:nonzero;stroke:none"
         id="path28" /><path
         d="m 1181.76,1740.97 c 0,-108.24 -87.76,-196 -196.01,-196 -108.25,0 -196.016,87.76 -196.016,196 0,108.26 87.766,196.01 196.016,196.01 108.25,0 196.01,-87.75 196.01,-196.01"
         style="fill:#fff;fill-opacity:1;fill-rule:nonzero;stroke:none"
         id="path30" /><path
         d="m 552.641,1117.75 c -109.348,0 -122.832,54.1 -105.782,54.6 83.715,0 240.856,62.22 430.621,176.48 100.2,60.34 305.49,187.94 599.65,352.31 116.03,64.83 287.23,164.99 233.63,111.39 C 1682.6,1784.37 1421.74,1513.2 1412.75,1318.52 1402.22,1090.73 1492,1041 1600.74,894.07 1693.94,768.172 1764.47,563.859 1778.94,525.68 1493.33,758.949 1148.82,896.57 1004.28,929 932.574,940.371 538.434,490.039 538.434,490.039 c 0,0 0.046,105.359 131.078,338.992 117.164,208.899 108.98,308.689 45.898,326.229 -68.234,18.96 -71.168,-37.51 -162.769,-37.51"
         style="fill:#ffffff;fill-opacity:1;fill-rule:nonzero;stroke:none"
         id="path32" /><path
         d="m 11179.7,1459.88 h 12.9 c 14.7,0 27.2,5.34 27.2,19.13 0,9.79 -7.1,19.58 -27.2,19.58 -5.7,0 -9.8,-0.44 -12.9,-0.89 z m 0,-61.84 h -17.8 v 111.67 c 9.4,1.33 18.3,2.68 31.6,2.68 16.9,0 28.1,-3.57 34.7,-8.46 6.7,-4.89 10.3,-12.46 10.3,-23.14 0,-14.68 -9.8,-23.58 -21.8,-27.14 v -0.89 c 9.7,-1.78 16.4,-10.68 18.7,-27.13 2.6,-17.36 5.3,-24.04 7.1,-27.59 h -18.7 c -2.7,3.55 -5.4,13.79 -7.6,28.47 -2.7,14.24 -9.8,19.58 -24,19.58 h -12.5 z m 18.7,142.82 c -44,0 -80.1,-37.82 -80.1,-84.54 0,-47.6 36.1,-84.98 80.6,-84.98 44.5,-0.45 80.1,37.38 80.1,84.54 0,47.16 -35.6,84.98 -80.1,84.98 z m 0.5,15.57 c 54.7,0 98.3,-44.49 98.3,-100.11 0,-56.5 -43.6,-100.55 -98.8,-100.55 -54.7,0 -99.2,44.05 -99.2,100.55 0,55.62 44.5,100.11 99.2,100.11 h 0.5"
         style="fill:#fff;fill-opacity:1;fill-rule:nonzero;stroke:none"
         id="path34" /></g></g></svg>
