<?xml version="1.0" encoding="UTF-8"?>
<!DOCTYPE svg PUBLIC "-//W3C//DTD SVG 1.1//EN" "http://www.w3.org/Graphics/SVG/1.1/DTD/svg11.dtd">
<svg version="1.2" width="444mm" height="111.1mm" viewBox="0 0 44400 11110" preserveAspectRatio="xMidYMid" fill-rule="evenodd" stroke-width="28.222" stroke-linejoin="round" xmlns="http://www.w3.org/2000/svg" xmlns:ooo="http://xml.openoffice.org/svg/export" xmlns:xlink="http://www.w3.org/1999/xlink" xmlns:presentation="http://sun.com/xmlns/staroffice/presentation" xmlns:smil="http://www.w3.org/2001/SMIL20/" xmlns:anim="urn:oasis:names:tc:opendocument:xmlns:animation:1.0" xml:space="preserve">
 <defs class="ClipPathGroup">
  <clipPath id="presentation_clip_path" clipPathUnits="userSpaceOnUse">
   <rect x="0" y="0" width="44400" height="11110"/>
  </clipPath>
  <clipPath id="presentation_clip_path_shrink" clipPathUnits="userSpaceOnUse">
   <rect x="44" y="11" width="44312" height="11088"/>
  </clipPath>
 </defs>
 <defs class="TextShapeIndex">
  <g ooo:slide="id1" ooo:id-list="id3 id4 id5 id6 id7 id8 id9 id10 id11 id12"/>
 </defs>
 <defs class="EmbeddedBulletChars">
  <g id="bullet-char-template-57356" transform="scale(0.00048828125,-0.00048828125)">
   <path d="M 580,1141 L 1163,571 580,0 -4,571 580,1141 Z"/>
  </g>
  <g id="bullet-char-template-57354" transform="scale(0.00048828125,-0.00048828125)">
   <path d="M 8,1128 L 1137,1128 1137,0 8,0 8,1128 Z"/>
  </g>
  <g id="bullet-char-template-10146" transform="scale(0.00048828125,-0.00048828125)">
   <path d="M 174,0 L 602,739 174,1481 1456,739 174,0 Z M 1358,739 L 309,1346 659,739 1358,739 Z"/>
  </g>
  <g id="bullet-char-template-10132" transform="scale(0.00048828125,-0.00048828125)">
   <path d="M 2015,739 L 1276,0 717,0 1260,543 174,543 174,936 1260,936 717,1481 1274,1481 2015,739 Z"/>
  </g>
  <g id="bullet-char-template-10007" transform="scale(0.00048828125,-0.00048828125)">
   <path d="M 0,-2 C -7,14 -16,27 -25,37 L 356,567 C 262,823 215,952 215,954 215,979 228,992 255,992 264,992 276,990 289,987 310,991 331,999 354,1012 L 381,999 492,748 772,1049 836,1024 860,1049 C 881,1039 901,1025 922,1006 886,937 835,863 770,784 769,783 710,716 594,584 L 774,223 C 774,196 753,168 711,139 L 727,119 C 717,90 699,76 672,76 641,76 570,178 457,381 L 164,-76 C 142,-110 111,-127 72,-127 30,-127 9,-110 8,-76 1,-67 -2,-52 -2,-32 -2,-23 -1,-13 0,-2 Z"/>
  </g>
  <g id="bullet-char-template-10004" transform="scale(0.00048828125,-0.00048828125)">
   <path d="M 285,-33 C 182,-33 111,30 74,156 52,228 41,333 41,471 41,549 55,616 82,672 116,743 169,778 240,778 293,778 328,747 346,684 L 369,508 C 377,444 397,411 428,410 L 1163,1116 C 1174,1127 1196,1133 1229,1133 1271,1133 1292,1118 1292,1087 L 1292,965 C 1292,929 1282,901 1262,881 L 442,47 C 390,-6 338,-33 285,-33 Z"/>
  </g>
  <g id="bullet-char-template-9679" transform="scale(0.00048828125,-0.00048828125)">
   <path d="M 813,0 C 632,0 489,54 383,161 276,268 223,411 223,592 223,773 276,916 383,1023 489,1130 632,1184 813,1184 992,1184 1136,1130 1245,1023 1353,916 1407,772 1407,592 1407,412 1353,268 1245,161 1136,54 992,0 813,0 Z"/>
  </g>
  <g id="bullet-char-template-8226" transform="scale(0.00048828125,-0.00048828125)">
   <path d="M 346,457 C 273,457 209,483 155,535 101,586 74,649 74,723 74,796 101,859 155,911 209,963 273,989 346,989 419,989 480,963 531,910 582,859 608,796 608,723 608,648 583,586 532,535 482,483 420,457 346,457 Z"/>
  </g>
  <g id="bullet-char-template-8211" transform="scale(0.00048828125,-0.00048828125)">
   <path d="M -4,459 L 1135,459 1135,606 -4,606 -4,459 Z"/>
  </g>
  <g id="bullet-char-template-61548" transform="scale(0.00048828125,-0.00048828125)">
   <path d="M 173,740 C 173,903 231,1043 346,1159 462,1274 601,1332 765,1332 928,1332 1067,1274 1183,1159 1299,1043 1357,903 1357,740 1357,577 1299,437 1183,322 1067,206 928,148 765,148 601,148 462,206 346,322 231,437 173,577 173,740 Z"/>
  </g>
 </defs>
 <defs class="TextEmbeddedBitmaps"/>
 <g>
  <g id="id2" class="Master_Slide">
   <g id="bg-id2" class="Background"/>
   <g id="bo-id2" class="BackgroundObjects"/>
  </g>
 </g>
 <g class="SlideGroup">
  <g>
   <g id="container-id1">
    <g id="id1" class="Slide" clip-path="url(#presentation_clip_path)">
     <g class="Page">
      <g class="com.sun.star.drawing.ClosedBezierShape">
       <g id="id3">
        <rect class="BoundingBox" stroke="none" fill="none" x="1497" y="1810" width="8105" height="8104"/>
        <path fill="rgb(255,255,255)" stroke="none" d="M 3448,5969 C 3771,5969 3781,5770 4022,5837 4244,5899 4273,6251 3860,6988 3398,7813 3552,7786 3398,8185 3946,7668 4788,6595 5041,6635 5551,6749 6766,7236 7775,8059 7724,7924 7475,7203 7146,6758 6762,6240 6445,6065 6482,5261 6514,4574 7435,3618 7534,3518 7723,3329 7119,3682 6709,3911 5671,4491 4947,4941 4594,5154 3924,5557 3370,5777 3075,5777 3014,5778 3062,5969 3448,5969 Z M 5667,3771 C 5667,3388 5358,3078 4976,3078 4593,3078 4283,3388 4283,3771 4283,4152 4593,4462 4976,4462 5358,4462 5667,4152 5667,3771 Z M 9601,5862 C 9601,8100 7787,9913 5549,9913 3311,9913 1497,8100 1497,5862 1497,3624 3311,1810 5549,1810 7787,1810 9601,3624 9601,5862 Z"/>
       </g>
      </g>
      <g class="com.sun.star.drawing.ClosedBezierShape">
       <g id="id4">
        <rect class="BoundingBox" stroke="none" fill="none" x="10854" y="4330" width="3926" height="2872"/>
        <path fill="rgb(255,255,255)" stroke="none" d="M 12783,4859 L 12008,5989 13550,5989 12783,4859 Z M 14778,6951 C 14778,7026 14755,7083 14708,7130 14657,7176 14601,7200 14536,7200 14437,7200 14358,7153 14297,7063 L 13849,6409 11713,6409 11260,7063 C 11213,7134 11162,7172 11106,7172 11073,7172 11036,7162 10994,7144 10900,7102 10854,7045 10854,6975 10854,6961 10858,6947 10868,6928 L 12470,4485 C 12531,4391 12633,4340 12783,4331 12900,4326 12988,4359 13044,4433 13049,4443 13059,4461 13073,4485 L 14769,6886 C 14778,6909 14778,6928 14778,6951 Z"/>
       </g>
      </g>
      <g class="com.sun.star.drawing.ClosedBezierShape">
       <g id="id5">
        <rect class="BoundingBox" stroke="none" fill="none" x="15118" y="4362" width="3155" height="2783"/>
        <path fill="rgb(255,255,255)" stroke="none" d="M 18095,7144 L 16501,7144 C 16226,7144 16015,7134 15880,7111 15632,7074 15441,6994 15315,6877 15184,6760 15118,6606 15118,6409 L 15118,4541 C 15118,4424 15179,4363 15301,4363 15422,4363 15497,4368 15520,4373 15590,4396 15628,4452 15628,4541 L 15628,6409 C 15628,6559 15744,6652 15983,6699 16076,6713 16249,6727 16496,6727 L 18095,6727 C 18170,6727 18221,6746 18244,6792 18263,6825 18272,6882 18272,6962 18272,7083 18216,7144 18095,7144 Z"/>
       </g>
      </g>
      <g class="com.sun.star.drawing.ClosedBezierShape">
       <g id="id6">
        <rect class="BoundingBox" stroke="none" fill="none" x="18775" y="4362" width="3460" height="2783"/>
        <path fill="rgb(255,255,255)" stroke="none" d="M 21733,5017 C 21733,4859 21513,4779 21069,4779 L 19285,4779 19285,5737 21074,5737 C 21513,5737 21733,5625 21733,5396 L 21733,5017 Z M 21817,6017 C 21616,6106 21359,6152 21041,6152 L 19285,6152 19285,6962 C 19285,7055 19248,7111 19178,7130 19154,7139 19080,7144 18958,7144 18837,7144 18776,7083 18776,6962 L 18776,4541 C 18776,4424 18837,4363 18958,4363 L 21065,4363 C 21336,4363 21579,4401 21789,4485 22089,4592 22234,4760 22234,4985 L 22234,5414 C 22234,5690 22098,5891 21817,6017 Z"/>
       </g>
      </g>
      <g class="com.sun.star.drawing.ClosedBezierShape">
       <g id="id7">
        <rect class="BoundingBox" stroke="none" fill="none" x="22713" y="4362" width="3468" height="2783"/>
        <path fill="rgb(255,255,255)" stroke="none" d="M 25998,7144 C 25877,7144 25807,7139 25779,7130 25713,7111 25676,7055 25676,6962 L 25676,5975 23223,5975 23223,6962 C 23223,7083 23162,7144 23045,7144 22919,7144 22844,7139 22821,7130 22751,7111 22714,7055 22714,6962 L 22714,4541 C 22714,4452 22751,4391 22821,4373 22844,4368 22919,4363 23045,4363 23162,4363 23223,4424 23223,4541 L 23223,5559 25676,5559 25676,4541 C 25676,4452 25713,4396 25783,4377 25807,4368 25877,4363 25998,4363 26120,4363 26180,4424 26180,4541 L 26180,6962 C 26180,7083 26120,7144 25998,7144 Z"/>
       </g>
      </g>
      <g class="com.sun.star.drawing.ClosedBezierShape">
       <g id="id8">
        <rect class="BoundingBox" stroke="none" fill="none" x="27103" y="4362" width="512" height="2783"/>
        <path fill="rgb(255,255,255)" stroke="none" d="M 27437,7144 C 27311,7144 27236,7139 27213,7130 27142,7111 27104,7055 27104,6962 L 27104,4541 C 27104,4452 27142,4391 27213,4373 27236,4368 27311,4363 27437,4363 27554,4363 27614,4424 27614,4541 L 27614,6962 C 27614,7083 27554,7144 27437,7144 Z"/>
       </g>
      </g>
      <g class="com.sun.star.drawing.ClosedBezierShape">
       <g id="id9">
        <rect class="BoundingBox" stroke="none" fill="none" x="28538" y="4345" width="3445" height="2818"/>
        <path fill="rgb(255,255,255)" stroke="none" d="M 31702,7162 C 31683,7162 31664,7158 31646,7158 31585,7148 31506,7106 31412,7027 L 29049,5017 29049,6962 C 29049,7055 29011,7111 28941,7130 28918,7139 28843,7144 28722,7144 28599,7144 28538,7083 28538,6962 L 28538,4644 C 28538,4564 28548,4513 28557,4490 28571,4447 28609,4410 28669,4377 28708,4354 28754,4345 28801,4345 28913,4345 29025,4391 29137,4490 L 31473,6475 31473,4541 C 31473,4452 31510,4396 31580,4373 31604,4368 31678,4363 31800,4363 31921,4363 31982,4424 31982,4541 L 31982,6844 C 31982,7055 31889,7162 31702,7162 Z"/>
       </g>
      </g>
      <g class="com.sun.star.drawing.ClosedBezierShape">
       <g id="id10">
        <rect class="BoundingBox" stroke="none" fill="none" x="32537" y="4330" width="3926" height="2872"/>
        <path fill="rgb(255,255,255)" stroke="none" d="M 34467,4859 L 33691,5989 35233,5989 34467,4859 Z M 36462,6951 C 36462,7026 36438,7083 36391,7130 36340,7176 36284,7200 36219,7200 36121,7200 36041,7153 35980,7063 L 35532,6409 33397,6409 32944,7063 C 32897,7134 32846,7172 32789,7172 32756,7172 32719,7162 32677,7144 32583,7102 32537,7045 32537,6975 32537,6961 32541,6947 32551,6928 L 34154,4485 C 34215,4391 34317,4340 34467,4331 34584,4326 34672,4359 34729,4433 34733,4443 34743,4461 34756,4485 L 36452,6886 C 36462,6909 36462,6928 36462,6951 Z"/>
       </g>
      </g>
      <g class="com.sun.star.drawing.ClosedBezierShape">
       <g id="id11">
        <rect class="BoundingBox" stroke="none" fill="none" x="36409" y="4362" width="3105" height="2783"/>
        <path fill="rgb(255,255,255)" stroke="none" d="M 39334,4779 L 38213,4779 38213,6962 C 38213,7083 38151,7144 38035,7144 37909,7144 37834,7139 37810,7130 37740,7111 37708,7055 37708,6962 L 37708,4779 36591,4779 C 36470,4779 36409,4718 36409,4597 36409,4518 36418,4461 36437,4429 36465,4387 36517,4363 36591,4363 L 39334,4363 C 39409,4363 39460,4387 39484,4429 39502,4461 39512,4518 39512,4597 39512,4718 39456,4779 39334,4779 Z"/>
       </g>
      </g>
      <g class="com.sun.star.drawing.ClosedBezierShape">
       <g id="id12">
        <rect class="BoundingBox" stroke="none" fill="none" x="40101" y="4329" width="700" height="710"/>
        <path fill="rgb(255,255,255)" stroke="none" d="M 40386,4670 L 40431,4670 C 40483,4670 40527,4651 40527,4603 40527,4568 40502,4534 40431,4534 40411,4534 40397,4535 40386,4537 L 40386,4670 Z M 40386,4888 L 40323,4888 40323,4493 C 40356,4489 40387,4484 40434,4484 40494,4484 40533,4497 40557,4515 40580,4532 40593,4559 40593,4596 40593,4648 40558,4680 40516,4692 L 40516,4695 C 40551,4702 40574,4733 40582,4791 40591,4852 40601,4876 40607,4888 L 40541,4888 C 40532,4876 40522,4840 40514,4788 40505,4738 40480,4719 40430,4719 L 40386,4719 40386,4888 Z M 40452,4384 C 40296,4384 40168,4518 40168,4683 40168,4851 40296,4983 40453,4983 40610,4984 40736,4851 40736,4684 40736,4518 40610,4384 40453,4384 L 40452,4384 Z M 40453,4329 C 40646,4329 40800,4486 40800,4683 40800,4882 40646,5038 40452,5038 40258,5038 40101,4882 40101,4683 40101,4486 40258,4329 40452,4329 L 40453,4329 Z"/>
       </g>
      </g>
     </g>
    </g>
   </g>
  </g>
 </g>
</svg>